<?xml version="1.0" encoding="UTF-8"?>
<svg width="321px" height="321px" viewBox="0 0 321 321" version="1.1" xmlns="http://www.w3.org/2000/svg" xmlns:xlink="http://www.w3.org/1999/xlink">
    <title>service-datavis</title>
    <g id="service-datavis" stroke="none" stroke-width="1" fill="none" fill-rule="evenodd">
        <path d="M105.954167,0 C109.267875,-6.08718376e-16 111.954167,2.6862915 111.954167,6 L111.954,22.395 L230.72714,22.3956023 C237.293729,16.5879323 245.919496,13.0639535 255.366667,13.0639535 C264.813874,13.0639535 273.439673,16.5879604 280.006271,22.3956716 L295.1,22.3953488 C303.219622,22.4048244 309.819258,28.9136638 309.99636,37.009372 L310,37.3255814 L310,246.348837 C309.990544,254.484934 303.494884,261.097961 295.415569,261.275423 L295.1,261.27907 L196.66315,261.27907 L204.941342,311.046512 L215.633333,311.046512 C218.376348,311.046512 220.6,313.274676 220.6,316.023256 C220.6,318.699505 218.491842,320.882368 215.848777,320.995402 L215.633333,321 L106.366667,321 C103.623652,321 101.4,318.771836 101.4,316.023256 C101.4,313.347007 103.508158,311.164144 106.151223,311.05111 L106.366667,311.046512 L117.058658,311.046512 L125.33685,261.27907 L26.9,261.27907 C18.780378,261.269594 12.1807419,254.760755 12.0036396,246.665047 L12,246.348837 L12,37.3255814 C12.0094564,29.1894844 18.5051159,22.5764575 26.5844309,22.3989959 L26.9,22.3953488 L92.087,22.395 L92.0875,6 C92.0875,2.6862915 94.7737915,6.08718376e-16 98.0875,0 L105.954167,0 Z M186.591992,261.27907 L135.408008,261.27907 L127.129817,311.046512 L194.870183,311.046512 L186.591992,261.27907 Z M300.066667,211.511628 L21.9333333,211.511628 L21.9333333,246.348837 C21.9363316,249.023841 24.0428593,251.204958 26.6846581,251.32075 L26.9,251.325581 L295.1,251.325581 C297.769587,251.322577 299.946288,249.211775 300.061845,246.564616 L300.066667,246.348837 L300.066667,211.511628 Z M172,221 C174.761424,221 177,223.238576 177,226 C177,228.761424 174.761424,231 172,231 L172,231 L152,231 C149.238576,231 147,228.761424 147,226 C147,223.238576 149.238576,221 152,221 L152,221 Z M92.086,72.162 L21.9333333,72.1627907 L21.9333333,201.55814 L300.066667,201.55814 L300.066667,72.1627907 L285.625489,72.1632089 C278.863481,81.5818876 267.82987,87.7151163 255.366667,87.7151163 C242.903464,87.7151163 231.869852,81.5818876 225.107844,72.1632089 L177.762,72.163 L177.761833,102.023 L190.178833,102.023 L190.179167,90.6046512 C190.179167,87.2909427 192.865458,84.6046512 196.179167,84.6046512 L204.045833,84.6046512 C207.359542,84.6046512 210.045833,87.2909427 210.045833,90.6046512 L210.045833,104.732558 C210.045833,104.97328 210.031657,105.210691 210.004094,105.444001 C210.031587,105.632513 210.045833,105.826221 210.045833,106.023256 L210.045833,106.732558 C210.045833,108.941697 208.254972,110.732558 206.045833,110.732558 L33.5208333,110.732558 C30.2071248,110.732558 27.5208333,108.046267 27.5208333,104.732558 L27.5208333,84.3837209 C27.5208333,81.0700124 30.2071248,78.3837209 33.5208333,78.3837209 L41.3875,78.3837209 C44.7012085,78.3837209 47.3875,81.0700124 47.3875,84.3837209 L47.3868333,102.023 L59.8038333,102.023 L59.8041667,90.6046512 C59.8041667,87.2909427 62.4904582,84.6046512 65.8041667,84.6046512 L73.6708333,84.6046512 C76.9845418,84.6046512 79.6708333,87.2909427 79.6708333,90.6046512 L79.6698333,102.023 L92.0868333,102.023 L92.086,72.162 Z M250.4,186.627907 C253.143014,186.627907 255.366667,188.856071 255.366667,191.604651 C255.366667,194.2809 253.258509,196.463763 250.615444,196.576797 L250.4,196.581395 L215.633333,196.581395 C212.890319,196.581395 210.666667,194.353231 210.666667,191.604651 C210.666667,188.928402 212.774825,186.745539 215.41789,186.632505 L215.633333,186.627907 L250.4,186.627907 Z M215.890373,133.492017 L215.961932,133.818414 L267.956723,164.21388 C270.619234,159.608287 275.527272,156.771255 280.839015,156.767426 C288.672562,156.768554 295.16752,162.847579 295.702134,170.67872 C296.236747,178.50986 290.628427,185.418504 282.868004,186.48852 C275.215365,187.543675 268.047337,182.565893 266.3192,175.058407 L266.249432,174.739693 L214.25464,144.344228 C211.662773,148.834538 206.928562,151.652757 201.753487,151.786014 C196.696028,151.916242 191.927625,149.463878 189.08273,145.291315 L188.88739,144.997426 L136.563557,184.319926 C135.305424,191.264103 129.365607,196.376389 122.324997,196.574779 C115.396141,196.770021 109.264817,192.153613 107.503442,185.466274 L107.42164,185.141089 L55.7062232,163.54824 C52.4247894,169.993947 45.0044265,173.155781 38.0949609,171.052442 C31.1854953,168.949103 26.7743275,162.185582 27.6256303,155.000109 C28.4769331,147.814636 34.3458424,142.274001 41.55472,141.850134 C48.6526919,141.432789 55.0395076,146.094181 56.84194,152.954316 L56.9230565,153.277484 L108.638473,174.870333 C111.051942,170.120139 115.811532,167.021333 121.123776,166.741579 C126.31797,166.468042 131.268648,168.930307 134.194321,173.218944 L134.39064,173.51417 L186.714473,134.19167 C187.989019,127.162032 194.055078,122.022447 201.184743,121.931458 C208.203006,121.841891 214.315316,126.669099 215.890373,133.492017 Z M121.922154,176.674402 C119.254494,176.66553 117.070419,178.765891 116.944669,181.41066 L116.939015,181.626263 L116.939015,181.651147 C116.942777,184.398164 119.164227,186.624122 121.905682,186.627891 C124.645456,186.627891 126.867736,184.404729 126.872286,181.6594 C126.876823,178.914071 124.661913,176.68357 121.922154,176.674402 Z M250.4,171.697674 C253.143014,171.697674 255.366667,173.925839 255.366667,176.674419 C255.366667,179.350667 253.258509,181.533531 250.615444,181.646565 L250.4,181.651163 L235.5,181.651163 C232.756986,181.651163 230.533333,179.422999 230.533333,176.674419 C230.533333,173.99817 232.641491,171.815307 235.284556,171.702272 L235.5,171.697674 L250.4,171.697674 Z M280.839015,166.720914 C278.096001,166.720914 275.872348,168.949079 275.872348,171.697659 C275.872348,174.446238 278.096001,176.674403 280.839015,176.674403 C283.580469,176.670633 285.80192,174.444676 285.805682,171.697659 C285.805682,168.949079 283.582029,166.720914 280.839015,166.720914 Z M42.4204053,151.790682 C39.6729599,151.794118 37.4475303,154.026846 37.4475303,156.779868 C37.4475303,159.53289 39.6729599,161.765617 42.4204053,161.769054 C45.0955496,161.772393 47.2810524,159.660998 47.400551,157.008529 L47.4056815,156.79231 L47.4056815,156.767426 C47.39883,154.014412 45.1678508,151.787253 42.4204053,151.790682 Z M201.372348,131.883705 C198.629334,131.883705 196.405682,134.111869 196.405682,136.860449 C196.405682,139.609029 198.629334,141.837193 201.372348,141.837193 C204.113803,141.833424 206.335253,139.607466 206.339015,136.860449 C206.339015,134.111869 204.115362,131.883705 201.372348,131.883705 Z M106.9875,126.284884 C109.730514,126.284884 111.954167,128.513048 111.954167,131.261628 C111.954167,133.937877 109.846009,136.12074 107.202944,136.233774 L106.9875,136.238372 L102.020833,136.238372 C99.2778191,136.238372 97.0541667,134.010208 97.0541667,131.261628 C97.0541667,128.585379 99.1623247,126.402516 101.80539,126.289482 L102.020833,126.284884 L106.9875,126.284884 Z M87.1208333,126.284884 C89.8638476,126.284884 92.0875,128.513048 92.0875,131.261628 C92.0875,133.937877 89.979342,136.12074 87.336277,136.233774 L87.1208333,136.238372 L32.4875,136.238372 C29.7444857,136.238372 27.5208333,134.010208 27.5208333,131.261628 C27.5208333,128.585379 29.6289913,126.402516 32.2720563,126.289482 L32.4875,126.284884 L87.1208333,126.284884 Z M290.133333,94.5581395 C292.876348,94.5581395 295.1,96.7863038 295.1,99.5348837 C295.1,102.211133 292.991842,104.393996 290.348777,104.50703 L290.133333,104.511628 L247.490154,104.511628 L229.078721,122.961041 C228.148262,123.895862 226.88428,124.420436 225.566667,124.418609 C223.557781,124.418609 221.746671,123.206132 220.977894,121.346403 C220.239868,119.561062 220.601992,117.516825 221.88894,116.09686 L222.054612,115.92268 L241.921279,96.0157035 C242.790649,95.1446146 243.949104,94.6298581 245.170683,94.5650955 L245.433333,94.5581395 L290.133333,94.5581395 Z M111.953,72.162 L111.953833,102.023 L124.369833,102.023 L124.37,72.163 L111.953,72.162 Z M157.895,72.163 L144.237,72.163 L144.236833,102.023 L157.895833,102.023 L157.895,72.163 Z M39.9375,84.6046512 L34.35,84.6046512 L34.35,102.023256 L39.9375,102.023256 L39.9375,84.6046512 Z M72.8416667,90.8255814 L67.2541667,90.8255814 L67.2541667,102.023256 L72.8416667,102.023256 L72.8416667,90.8255814 Z M104.504167,6.84302326 L98.9166667,6.84302326 L98.9166667,102.023256 L104.504167,102.023256 L104.504167,6.84302326 Z M137.408333,49.1453488 L131.820833,49.1453488 L131.820833,102.023256 L137.408333,102.023256 L137.408333,49.1453488 Z M170.3125,64.6976744 L164.725,64.6976744 L164.725,102.023256 L170.3125,102.023256 L170.3125,64.6976744 Z M203.216667,90.8255814 L197.629167,90.8255814 L197.629167,102.023256 L203.216667,102.023256 L203.216667,90.8255814 Z M284.038819,54.744186 L257.079132,54.744186 L238.024722,73.8370863 C246.20656,79.9773102 257.013403,81.3392628 266.457847,77.420424 C275.902291,73.5015852 282.584455,64.8828161 284.038819,54.744186 Z M251.227778,21.7732558 C236.984293,23.8493622 226.414992,36.0580139 226.394429,50.458361 C226.388197,56.531711 228.298819,62.4470568 231.846362,67.3639255 L232.173368,67.8081395 L251.227778,48.7451221 L251.227778,21.7732558 Z M92.087,32.348 L26.9,32.3488372 C24.2304132,32.3518415 22.0537121,34.4626435 21.9381551,37.1098025 L21.9333333,37.3255814 L21.9333333,62.2093023 L92.086,62.209 L92.087,32.348 Z M222.749328,32.3479188 L111.954,32.348 L111.953,62.209 L124.37,62.209 L124.370833,48.3023256 C124.370833,44.9886171 127.057125,42.3023256 130.370833,42.3023256 L138.2375,42.3023256 C141.551208,42.3023256 144.2375,44.9886171 144.2375,48.3023256 L144.237,62.209 L157.982763,62.2091703 C158.468443,59.3829726 160.93101,57.2325581 163.895833,57.2325581 L171.7625,57.2325581 C174.727323,57.2325581 177.18989,59.3829726 177.67557,62.2091703 L220.023041,62.2093907 C218.786414,58.4949017 218.116667,54.520591 218.116667,50.3895349 C218.116667,43.8458004 219.797173,37.6953657 222.749328,32.3479188 Z M287.984005,32.3479188 C290.93616,37.6953657 292.616667,43.8458004 292.616667,50.3895349 C292.616667,54.520591 291.946919,58.4949017 290.710292,62.2093907 L300.066667,62.2093023 L300.066667,37.3255814 C300.063587,34.5782806 297.841738,32.3519227 295.1,32.3488372 L287.984005,32.3479188 Z M259.505556,21.7732558 L259.505556,46.0348837 L284.038819,46.0348837 C282.185187,33.4727896 272.208296,23.6063643 259.505556,21.7732558 Z" id="Combined-Shape" fill="#000000" fill-rule="nonzero"></path>
        <circle id="Oval" fill="#000000" fill-rule="nonzero" cx="41.0900621" cy="47.0900621" r="5.09006211"></circle>
        <circle id="Oval" fill="#000000" fill-rule="nonzero" cx="60.5248447" cy="47.0900621" r="5.09006211"></circle>
        <circle id="Oval" fill="#000000" fill-rule="nonzero" cx="80.8850932" cy="47.0900621" r="5.09006211"></circle>
    </g>
</svg>