<?xml version="1.0" encoding="UTF-8"?>
<svg width="321px" height="321px" viewBox="0 0 321 321" version="1.1" xmlns="http://www.w3.org/2000/svg" xmlns:xlink="http://www.w3.org/1999/xlink">
    <title>service-editorial</title>
    <g id="service-editorial" stroke="none" stroke-width="1" fill="none" fill-rule="evenodd">
        <path d="M295.1,23 C303.219622,23.0094564 309.819258,29.5051159 309.99636,37.5844309 L310,37.9 L310,246.5 C309.990544,254.619622 303.494884,261.219258 295.415569,261.39636 L295.1,261.4 L196.66315,261.4 L204.941342,311.066667 L225.566667,311.066667 C228.309681,311.066667 230.533333,313.290319 230.533333,316.033333 C230.533333,318.704163 228.425175,320.882606 225.78211,320.995411 L225.566667,321 L96.4333333,321 C93.6903191,321 91.4666667,318.776348 91.4666667,316.033333 C91.4666667,313.362504 93.5748247,311.184061 96.2178896,311.071255 L96.4333333,311.066667 L117.058658,311.066667 L125.33685,261.4 L26.9,261.4 C18.780378,261.390544 12.1807419,254.894884 12.0036396,246.815569 L12,246.5 L12,37.9 C12.0094564,29.780378 18.5051159,23.1807419 26.5844309,23.0036396 L26.9,23 L295.1,23 Z M186.591992,261.4 L135.408008,261.4 L127.129817,311.066667 L194.870183,311.066667 L186.591992,261.4 Z M300.066667,211.733333 L21.9333333,211.733333 L21.9333333,246.5 C21.9363316,249.169587 24.0428593,251.346288 26.6846581,251.461845 L26.9,251.466667 L295.1,251.466667 C297.769587,251.463668 299.946288,249.357141 300.061845,246.715342 L300.066667,246.5 L300.066667,211.733333 Z M171.366563,221.666667 C174.101032,221.666667 176.317757,223.952664 176.317757,226.772586 C176.317757,229.592507 174.101032,231.878505 171.366563,231.878505 L171.366563,231.878505 L151.561786,231.878505 C148.827317,231.878505 146.610592,229.592507 146.610592,226.772586 C146.610592,223.952664 148.827317,221.666667 151.561786,221.666667 L151.561786,221.666667 Z M300.066667,72.6666667 L21.9333333,72.6666667 L21.9333333,201.8 L300.066667,201.8 L300.066667,72.6666667 Z M175.986204,157.610592 C178.73288,157.610592 180.959502,159.792681 180.959502,162.484424 L180.959502,162.484424 L180.959502,172.232087 C180.959502,174.92383 178.73288,177.105919 175.986204,177.105919 C173.239527,177.105919 171.012906,174.92383 171.012906,172.232087 L171.012906,172.232087 L116.306631,172.232087 C113.559955,172.232087 111.333333,170.049998 111.333333,167.358255 C111.333333,164.666512 113.559955,162.484424 116.306631,162.484424 L116.306631,162.484424 L171.012906,162.484424 C171.012906,159.792681 173.239527,157.610592 175.986204,157.610592 Z M96.1703011,102.838006 C98.9047702,102.838006 101.121495,105.064627 101.121495,107.811304 C101.121495,110.55798 98.9047702,112.784602 96.1703011,112.784602 L96.1703011,112.784602 L76.3655244,112.784602 L76.3655244,167.490877 C76.3655244,170.237553 74.1487993,172.464174 71.4143302,172.464174 C68.6798612,172.464174 66.463136,170.237553 66.463136,167.490877 L66.463136,167.490877 L66.463136,112.784602 L46.6583593,112.784602 C43.9238903,112.784602 41.7071651,110.55798 41.7071651,107.811304 C41.7071651,105.064627 43.9238903,102.838006 46.6583593,102.838006 L46.6583593,102.838006 Z M275.323438,132.545171 C278.06796,132.545171 280.292835,134.831169 280.292835,137.65109 C280.292835,140.471012 278.06796,142.757009 275.323438,142.757009 L275.323438,142.757009 L116.30273,142.757009 C113.558208,142.757009 111.333333,140.471012 111.333333,137.65109 C111.333333,134.831169 113.558208,132.545171 116.30273,132.545171 L116.30273,132.545171 Z M275.323438,101.909657 C278.06796,101.909657 280.292835,104.195655 280.292835,107.015576 C280.292835,109.835498 278.06796,112.121495 275.323438,112.121495 L275.323438,112.121495 L116.30273,112.121495 C113.558208,112.121495 111.333333,109.835498 111.333333,107.015576 C111.333333,104.195655 113.558208,101.909657 116.30273,101.909657 L116.30273,101.909657 Z M295.1,32.9333333 L26.9,32.9333333 C24.2304132,32.9363316 22.0537121,35.0428593 21.9381551,37.6846581 L21.9333333,37.9 L21.9333333,62.7333333 L300.066667,62.7333333 L300.066667,37.9 C300.063587,35.1582622 297.841738,32.9364126 295.1,32.9333333 Z M36.6012461,42.4953271 C39.4211673,42.4953271 41.7071651,44.7813249 41.7071651,47.6012461 C41.7071651,50.4211673 39.4211673,52.7071651 36.6012461,52.7071651 C33.7813249,52.7071651 31.4953271,50.4211673 31.4953271,47.6012461 C31.4953271,44.7813249 33.7813249,42.4953271 36.6012461,42.4953271 Z M57.0249221,42.4953271 C59.8448433,42.4953271 62.1308411,44.7813249 62.1308411,47.6012461 C62.1308411,50.4211673 59.8448433,52.7071651 57.0249221,52.7071651 C54.2050009,52.7071651 51.9190031,50.4211673 51.9190031,47.6012461 C51.9190031,44.7813249 54.2050009,42.4953271 57.0249221,42.4953271 Z M76.5202492,42.4953271 C79.3401704,42.4953271 81.6261682,44.7813249 81.6261682,47.6012461 C81.6261682,50.4211673 79.3401704,52.7071651 76.5202492,52.7071651 C73.700328,52.7071651 71.4143302,50.4211673 71.4143302,47.6012461 C71.4143302,44.7813249 73.700328,42.4953271 76.5202492,42.4953271 Z" id="Combined-Shape" fill="#000000" fill-rule="nonzero"></path>
    </g>
</svg>