<?xml version="1.0" encoding="UTF-8"?>
<svg width="100px" height="100px" viewBox="0 0 100 100" version="1.1" xmlns="http://www.w3.org/2000/svg" xmlns:xlink="http://www.w3.org/1999/xlink">
    <title>icon-download</title>
    <g id="icon-download" stroke="none" stroke-width="1" fill="none" fill-rule="evenodd">
        <path d="M50,0 C77.6142375,0 100,22.3857625 100,50 C100,77.6142375 77.6142375,100 50,100 C22.3857625,100 0,77.6142375 0,50 C0,22.3857625 22.3857625,0 50,0 Z M50,3 C24.0426168,3 3,24.0426168 3,50 C3,75.9573832 24.0426168,97 50,97 C75.9573832,97 97,75.9573832 97,50 C97,24.0426168 75.9573832,3 50,3 Z M59,26 L59,50 L74,50 L50,74 L26,50 L41,50 L41,26 L59,26 Z" id="Combined-Shape" fill="#FFFFFF"></path>
    </g>
</svg>